<svg width="71" height="60" viewBox="0 0 71 60" fill="none" xmlns="http://www.w3.org/2000/svg">
<mask id="mask0_175_239" style="mask-type:luminance" maskUnits="userSpaceOnUse" x="0" y="-10" width="71" height="70">
<path d="M0.984375 -9.23077H70.2151V60H0.984375V-9.23077Z" fill="white"/>
</mask>
<g mask="url(#mask0_175_239)">
<path d="M41.6851 58.9854V42.5201C41.1373 41.2106 38.0816 38.9629 35.6002 37.2785C33.1187 38.9628 30.063 41.2105 29.5156 42.5199V58.9854" stroke="#EB7024" stroke-miterlimit="22.926"/>
<path d="M36.6139 58.9854H70.2151M0.984375 58.9854H34.5856" stroke="#EB7024" stroke-miterlimit="22.926"/>
<path d="M70.2149 32.458H0.984375M67.1726 36.5146H45.7408M4.02661 36.5146H25.4584" stroke="#EB7024" stroke-miterlimit="22.926"/>
<path d="M67.1734 43.6137V55.9434M67.1734 32.4583V41.5854M61.5281 24.3455H67.1734V29.4161M11.7009 24.3455H59.4998M4.02734 29.4161V24.3455H9.67263M4.02734 41.5854V32.4583M4.02734 55.9434V43.6137" stroke="#EB7024" stroke-miterlimit="22.926"/>
<path d="M11.2617 55.9434V47.2219C11.2617 46.1064 13.0762 44.9837 14.3041 44.1795C15.532 44.9837 17.3465 46.1069 17.3465 47.2219M59.9396 55.9434V47.2219C59.9396 46.1064 58.1251 44.9837 56.8972 44.1795C55.6693 44.9837 53.8549 46.1069 53.8549 47.2219" stroke="#EB7024" stroke-miterlimit="22.926"/>
<path d="M53.8522 24.3455V55.9434M17.3438 24.3455V55.9434M25.4567 41.5854V24.3455M25.4567 55.9434V43.6137M45.7392 41.5854V24.3455M45.7392 55.9434V43.6137" stroke="#EB7024" stroke-miterlimit="22.926"/>
<path d="M58.4835 36.5146V32.4582M8.65625 36.5146V32.458M12.7127 36.5146V32.458M35.5981 29.4158V24.3452M30.5276 29.4158V24.3452M40.6686 29.4158V24.3452M35.5981 0.825247V16.2322M62.54 36.5146V32.4582" stroke="#EB7024" stroke-miterlimit="22.926"/>
<path d="M19.3729 10.1475C17.1284 7.39581 19.4038 6.11423 21.4011 4.88173C23.3984 6.11423 25.6739 7.39581 23.4293 10.1475M47.7683 10.1475C45.5238 7.39581 47.7993 6.11423 49.7965 4.88173C51.7938 6.11423 54.0694 7.39581 51.8248 10.1475" stroke="#EB7024" stroke-miterlimit="22.926"/>
<path d="M23.4295 24.3447V10.147H19.373V24.3447M51.825 24.3447V10.147H47.7685V24.3447" stroke="#EB7024" stroke-miterlimit="22.926"/>
<path d="M38.6415 20.2891H47.7686M34.585 20.2891H36.6133M23.4297 20.2891H32.5568M26.4721 16.2327H44.7263" stroke="#EB7024" stroke-miterlimit="22.926"/>
<path d="M62.1015 28.4008H64.1298M48.7829 28.4008H50.8111M40.6697 36.5138H42.698M20.3874 28.4008H22.4157M7.06836 28.4008H9.09674M7.06836 40.5703H9.09674M62.1015 40.5703H64.1299" stroke="#EB7024" stroke-miterlimit="2.613"/>
<path d="M47.7685 16.2324H51.825M23.4295 16.2324H19.373" stroke="#EB7024" stroke-miterlimit="22.926"/>
</g>
</svg>
