<svg width="61" height="60" viewBox="0 0 61 60" fill="none" xmlns="http://www.w3.org/2000/svg">
<g clip-path="url(#clip0_175_271)">
<path d="M24.7031 9.14355V13.148" stroke="#EB7024" stroke-miterlimit="10" stroke-linecap="round" stroke-linejoin="round"/>
<path d="M14.7552 3.97512C14.6509 3.97945 14.5541 3.91969 14.5129 3.82371C13.7686 2.09215 12.0487 0.878906 10.0443 0.878906C7.99997 0.878906 6.2513 2.1409 5.53223 3.92801C5.48383 4.04836 5.35387 4.11129 5.22837 4.07871C4.87071 3.98566 4.48997 3.95027 4.09575 3.98543C2.48079 4.12922 1.19231 5.44582 1.08555 7.06359C0.958053 8.99695 2.48852 10.6049 4.39458 10.6049C5.31438 10.6049 6.14618 10.2299 6.74688 9.62496C6.83852 9.53262 6.98266 9.52113 7.0859 9.60047C7.90551 10.23 8.93091 10.6049 10.0443 10.6049C10.9717 10.6049 11.8381 10.3446 12.5756 9.89402C12.6654 9.83906 12.7795 9.8468 12.8628 9.91125C13.4672 10.3795 14.2373 10.6441 15.0707 10.6002C16.8106 10.5083 18.1966 9.05215 18.2075 7.3098C18.2194 5.40352 16.6254 3.89695 14.7552 3.97512Z" stroke="#EB7024" stroke-miterlimit="10" stroke-linecap="round" stroke-linejoin="round"/>
<path d="M55.5568 4.25438C55.4432 4.25918 55.3376 4.19391 55.2927 4.08937C54.4813 2.20148 52.6063 0.878906 50.4211 0.878906C48.1924 0.878906 46.286 2.25469 45.5022 4.20305C45.4494 4.3343 45.3077 4.40297 45.1709 4.36734C44.781 4.26598 44.3659 4.22742 43.9362 4.26563C42.1756 4.4223 40.7708 5.85762 40.6546 7.62141C40.5156 9.72902 42.1841 11.4819 44.262 11.4819C45.2647 11.4819 46.1715 11.073 46.8264 10.4136C46.9263 10.313 47.0835 10.3004 47.196 10.3869C48.0895 11.0733 49.2074 11.4819 50.4212 11.4819C51.4323 11.4819 52.3768 11.1982 53.1808 10.707C53.2787 10.6471 53.4031 10.6554 53.4939 10.7258C54.1528 11.2364 54.9924 11.5248 55.9009 11.4769C57.7977 11.3767 59.3087 9.78914 59.3206 7.88977C59.3334 5.81144 57.5958 4.16918 55.5568 4.25438Z" stroke="#EB7024" stroke-miterlimit="10" stroke-linecap="round" stroke-linejoin="round"/>
<path d="M59.3203 59.1211H1.07812" stroke="#EB7024" stroke-miterlimit="10" stroke-linecap="round" stroke-linejoin="round"/>
<path d="M25.875 17.9434H36.205V30.0852" stroke="#EB7024" stroke-miterlimit="10" stroke-linecap="round" stroke-linejoin="round"/>
<path d="M13.2012 24.6746V18.7637C13.2012 18.3102 13.568 17.9434 14.0215 17.9434H21.7736" stroke="#EB7024" stroke-miterlimit="10" stroke-linecap="round" stroke-linejoin="round"/>
<path d="M22.1055 21.3086H24.4243" stroke="#EB7024" stroke-miterlimit="10" stroke-linecap="round" stroke-linejoin="round"/>
<path d="M24.425 26.3574H22.4023" stroke="#EB7024" stroke-miterlimit="10" stroke-linecap="round" stroke-linejoin="round"/>
<path d="M30.5215 21.3086H32.8403" stroke="#EB7024" stroke-miterlimit="10" stroke-linecap="round" stroke-linejoin="round"/>
<path d="M30.5215 26.3574H32.8403" stroke="#EB7024" stroke-miterlimit="10" stroke-linecap="round" stroke-linejoin="round"/>
<path d="M22.4014 59.1215H5.68359V25.4961C5.68359 25.043 6.05086 24.6758 6.50391 24.6758H21.5812C22.0343 24.6758 22.4016 25.043 22.4016 25.4961L22.4014 59.1215Z" stroke="#EB7024" stroke-miterlimit="10" stroke-linecap="round" stroke-linejoin="round"/>
<path d="M54.7148 44.7631V15.1209C54.7148 14.6592 54.3187 14.2971 53.8594 14.3381L36.9199 15.8791C36.5156 15.9155 36.2051 16.2541 36.2051 16.6608V30.0858" stroke="#EB7024" stroke-miterlimit="10" stroke-linecap="round" stroke-linejoin="round"/>
<path d="M54.7148 59.121V48.8643" stroke="#EB7024" stroke-miterlimit="10" stroke-linecap="round" stroke-linejoin="round"/>
<path d="M41.9336 48.8857H48.25C48.7035 48.8857 49.0703 49.2525 49.0703 49.7061V59.1209" stroke="#EB7024" stroke-miterlimit="10" stroke-linecap="round" stroke-linejoin="round"/>
<path d="M40.9336 21.126H43.2524" stroke="#EB7024" stroke-miterlimit="10" stroke-linecap="round" stroke-linejoin="round"/>
<path d="M47.666 21.126H49.9847" stroke="#EB7024" stroke-miterlimit="10" stroke-linecap="round" stroke-linejoin="round"/>
<path d="M40.9336 27.8584H43.2524" stroke="#EB7024" stroke-miterlimit="10" stroke-linecap="round" stroke-linejoin="round"/>
<path d="M47.666 27.8584H49.9847" stroke="#EB7024" stroke-miterlimit="10" stroke-linecap="round" stroke-linejoin="round"/>
<path d="M43.2523 34.5898H41.9316" stroke="#EB7024" stroke-miterlimit="10" stroke-linecap="round" stroke-linejoin="round"/>
<path d="M47.6641 34.5898H49.9827" stroke="#EB7024" stroke-miterlimit="10" stroke-linecap="round" stroke-linejoin="round"/>
<path d="M43.2543 41.3213H41.9336" stroke="#EB7024" stroke-miterlimit="10" stroke-linecap="round" stroke-linejoin="round"/>
<path d="M47.668 41.3223H49.9866" stroke="#EB7024" stroke-miterlimit="10" stroke-linecap="round" stroke-linejoin="round"/>
<path d="M41.9336 59.1216H22.4023V30.0859H41.1132C41.5662 30.0859 41.9335 30.4532 41.9335 30.9062V59.1216H41.9336Z" stroke="#EB7024" stroke-miterlimit="10" stroke-linecap="round" stroke-linejoin="round"/>
<path d="M17.5449 17.9434V13.9688C17.5449 13.5157 17.9122 13.1484 18.3652 13.1484H31.0426C31.4956 13.1484 31.8629 13.5157 31.8629 13.9688V17.9434" stroke="#EB7024" stroke-miterlimit="10" stroke-linecap="round" stroke-linejoin="round"/>
<path d="M17.6526 59.121H10.4336V49.7061C10.4336 49.253 10.8009 48.8857 11.2539 48.8857H16.8323C17.2853 48.8857 17.6526 49.253 17.6526 49.7061V59.121Z" stroke="#EB7024" stroke-miterlimit="10" stroke-linecap="round" stroke-linejoin="round"/>
<path d="M9.51758 30.0859H11.8364" stroke="#EB7024" stroke-miterlimit="10" stroke-linecap="round" stroke-linejoin="round"/>
<path d="M16.25 30.0859H18.5688" stroke="#EB7024" stroke-miterlimit="10" stroke-linecap="round" stroke-linejoin="round"/>
<path d="M9.51758 36.8184H11.8364" stroke="#EB7024" stroke-miterlimit="10" stroke-linecap="round" stroke-linejoin="round"/>
<path d="M16.25 36.8184H18.5688" stroke="#EB7024" stroke-miterlimit="10" stroke-linecap="round" stroke-linejoin="round"/>
<path d="M9.51758 43.5498H11.8364" stroke="#EB7024" stroke-miterlimit="10" stroke-linecap="round" stroke-linejoin="round"/>
<path d="M16.25 43.5498H18.5688" stroke="#EB7024" stroke-miterlimit="10" stroke-linecap="round" stroke-linejoin="round"/>
<path d="M36.9369 59.121H27.3984V45.8232C27.3984 45.3702 27.7657 45.0029 28.2188 45.0029H36.1166C36.5696 45.0029 36.9369 45.3702 36.9369 45.8232V59.121Z" stroke="#EB7024" stroke-miterlimit="10" stroke-linecap="round" stroke-linejoin="round"/>
<path d="M27.6426 34.9004H29.9614" stroke="#EB7024" stroke-miterlimit="10" stroke-linecap="round" stroke-linejoin="round"/>
<path d="M34.375 34.9004H36.6938" stroke="#EB7024" stroke-miterlimit="10" stroke-linecap="round" stroke-linejoin="round"/>
<path d="M27.6426 39.9492H29.9614" stroke="#EB7024" stroke-miterlimit="10" stroke-linecap="round" stroke-linejoin="round"/>
<path d="M34.375 39.9492H36.6938" stroke="#EB7024" stroke-miterlimit="10" stroke-linecap="round" stroke-linejoin="round"/>
</g>
<defs>
<clipPath id="clip0_175_271">
<rect width="60" height="60" fill="white" transform="translate(0.199219)"/>
</clipPath>
</defs>
</svg>
