<svg width="60" height="60" viewBox="0 0 60 60" fill="none" xmlns="http://www.w3.org/2000/svg">
<mask id="mask0_175_217" style="mask-type:luminance" maskUnits="userSpaceOnUse" x="0" y="0" width="60" height="60">
<path d="M0 3.8147e-06H60V60H0V3.8147e-06Z" fill="white"/>
</mask>
<g mask="url(#mask0_175_217)">
<path d="M32.3558 1.68744C33.3339 2.46334 34.6319 2.70604 35.8242 2.33584C37.5006 1.81518 39.3149 2.51795 40.203 4.03225C40.8348 5.10897 41.9576 5.80424 43.203 5.88967C44.9544 6.00991 46.3922 7.32053 46.6734 9.05338C46.8735 10.2856 47.6693 11.3396 48.7998 11.8692C50.3895 12.6139 51.2566 14.3555 50.893 16.0728C50.6344 17.2941 50.9958 18.5644 51.8586 19.4665C53.0719 20.7353 53.2515 22.6726 52.2919 24.1426C51.6095 25.188 51.4877 26.503 51.9663 27.656C52.6394 29.2772 52.1069 31.1486 50.6812 32.1727C49.6673 32.901 49.0786 34.0832 49.1085 35.3313C49.1503 37.0862 47.978 38.6388 46.2785 39.0787C45.0698 39.3916 44.0939 40.2813 43.671 41.4558C43.076 43.1075 41.4218 44.1317 39.6783 43.928H39.6782C38.4383 43.7831 37.2069 44.2603 36.388 45.2026C35.2368 46.5277 33.3244 46.8853 31.7721 46.0655C30.6682 45.4825 29.3475 45.4825 28.2436 46.0655C26.6913 46.8853 24.7788 46.5278 23.6276 45.2027C22.8088 44.2604 21.5773 43.7831 20.3373 43.928C18.5937 44.1317 16.9396 43.1075 16.3447 41.4558C15.9217 40.2813 14.9457 39.3916 13.7372 39.0787C12.0377 38.6388 10.8653 37.0862 10.9072 35.3313C10.937 34.0832 10.3484 32.901 9.33445 32.1727C7.90863 31.1486 7.37625 29.2772 8.04926 27.656C8.52797 26.503 8.40609 25.188 7.72371 24.1426C6.76418 22.6726 6.94371 20.7353 8.15695 19.4665C9.01992 18.5644 9.38133 17.2941 9.12269 16.0728C8.75894 14.3555 9.62613 12.6139 11.2158 11.8692C12.3463 11.3396 13.1421 10.2856 13.3421 9.05338C13.6234 7.32053 15.0612 6.00991 16.8125 5.88967C18.058 5.80424 19.1809 5.10897 19.8125 4.03225C20.7007 2.51795 22.5149 1.81518 24.1915 2.33584C25.3836 2.70604 26.6818 2.46334 27.6598 1.68744C29.0351 0.596311 30.9806 0.596311 32.3558 1.68744Z" stroke="#EB7024" stroke-miterlimit="10" stroke-linecap="round" stroke-linejoin="round"/>
<path d="M13.4668 21.6301C14.48 13.3958 21.4991 7.0202 30.0073 7.0202C38.5182 7.0202 45.5393 13.3998 46.5489 21.6377" stroke="#EB7024" stroke-miterlimit="10" stroke-linecap="round" stroke-linejoin="round"/>
<path d="M46.5492 25.7331C45.5398 33.9715 38.5188 40.3516 30.0076 40.3516C21.4988 40.3516 14.4794 33.9754 13.4668 25.7405" stroke="#EB7024" stroke-miterlimit="10" stroke-linecap="round" stroke-linejoin="round"/>
<path d="M30.7798 12.4604L33.1577 18.9739C33.2724 19.2882 33.5662 19.5016 33.9006 19.5137L40.8301 19.7624C41.5966 19.7898 41.9113 20.7588 41.3075 21.2316L35.8475 25.5057C35.584 25.712 35.4718 26.0573 35.5638 26.3791L37.4686 33.0463C37.6794 33.7837 36.8551 34.3826 36.2188 33.9544L30.4666 30.0825C30.189 29.8956 29.8258 29.8956 29.5483 30.0825L23.796 33.9544C23.1598 34.3826 22.3355 33.7837 22.5462 33.0463L24.4511 26.3791C24.5431 26.0573 24.4308 25.712 24.1673 25.5057L18.7074 21.2316C18.1035 20.7588 18.4184 19.7898 19.1848 19.7624L26.1142 19.5137C26.4487 19.5016 26.7425 19.2882 26.8572 18.9739L29.2349 12.4604C29.498 11.74 30.5169 11.74 30.7798 12.4604Z" stroke="#EB7024" stroke-miterlimit="10" stroke-linecap="round" stroke-linejoin="round"/>
<path d="M30.7207 45.6972L35.966 58.36C36.3599 59.3111 37.6833 59.3739 38.1655 58.4644L40.7641 53.5646C41.0377 53.0491 41.6385 52.8002 42.1965 52.9714L47.4987 54.5985C48.4828 54.9005 49.3741 53.9202 48.98 52.9693L43.9563 40.841" stroke="#EB7024" stroke-miterlimit="10" stroke-linecap="round" stroke-linejoin="round"/>
<path d="M16.0567 40.841L11.0329 52.9693C10.639 53.9202 11.5303 54.9005 12.5143 54.5984L17.8166 52.9714C18.3745 52.8002 18.9755 53.0491 19.2489 53.5646L21.8475 58.4644C22.3298 59.3739 23.6531 59.3111 24.0471 58.36L29.2923 45.6972" stroke="#EB7024" stroke-miterlimit="10" stroke-linecap="round" stroke-linejoin="round"/>
</g>
</svg>
