<svg width="60" height="60" viewBox="0 0 60 60" fill="none" xmlns="http://www.w3.org/2000/svg">
<path d="M48.8637 56.8273V58.5327C48.8637 58.8575 48.6004 59.1208 48.2756 59.1208H11.7249C11.4 59.1208 11.1367 58.8575 11.1367 58.5327V40.5781" stroke="#EB7024" stroke-miterlimit="10" stroke-linecap="round" stroke-linejoin="round"/>
<path d="M11.1367 36.4766V33.1982H26.113C26.637 33.1982 27.0617 33.6229 27.0617 34.1469V35.2898C27.0617 35.8137 27.4864 36.2384 28.0103 36.2384H35.9211C36.1775 36.2384 36.423 36.3423 36.6017 36.5262L38.6095 38.5943C38.788 38.7782 39.0336 38.8821 39.2901 38.8821H47.9153C48.4393 38.8821 48.8639 39.3068 48.8639 39.8307V52.4916" stroke="#EB7024" stroke-miterlimit="10" stroke-linecap="round" stroke-linejoin="round"/>
<path d="M11.1367 33.1984V0.878906" stroke="#EB7024" stroke-miterlimit="10" stroke-linecap="round" stroke-linejoin="round"/>
<path d="M27.0625 34.3683V0.878906" stroke="#EB7024" stroke-miterlimit="10" stroke-linecap="round" stroke-linejoin="round"/>
<path d="M35.9082 36.2386V12.5977" stroke="#EB7024" stroke-miterlimit="10" stroke-linecap="round" stroke-linejoin="round"/>
<path d="M48.8633 40.5784V12.5977" stroke="#EB7024" stroke-miterlimit="10" stroke-linecap="round" stroke-linejoin="round"/>
<path d="M11.1367 26.2988H48.8638" stroke="#EB7024" stroke-miterlimit="10" stroke-linecap="round" stroke-linejoin="round"/>
<path d="M11.1367 16.1006H48.8638" stroke="#EB7024" stroke-miterlimit="10" stroke-linecap="round" stroke-linejoin="round"/>
<path d="M11.1367 5.90137H30.9223" stroke="#EB7024" stroke-miterlimit="10" stroke-linecap="round" stroke-linejoin="round"/>
<path d="M27.7914 59.1207H17.6992V43.2054C17.6992 42.6794 18.1257 42.2529 18.6517 42.2529H26.8388C27.3648 42.2529 27.7913 42.6794 27.7913 43.2054V59.1207H27.7914Z" stroke="#EB7024" stroke-miterlimit="10" stroke-linecap="round" stroke-linejoin="round"/>
<path d="M22.7461 50.2539V51.4614" stroke="#EB7024" stroke-miterlimit="10" stroke-linecap="round" stroke-linejoin="round"/>
<path d="M33.0234 53.5742V55.3941" stroke="#EB7024" stroke-miterlimit="10" stroke-linecap="round" stroke-linejoin="round"/>
<path d="M33.0234 48.3711V50.191" stroke="#EB7024" stroke-miterlimit="10" stroke-linecap="round" stroke-linejoin="round"/>
<path d="M37.1367 53.5742V55.3941" stroke="#EB7024" stroke-miterlimit="10" stroke-linecap="round" stroke-linejoin="round"/>
<path d="M37.1367 48.3711V50.191" stroke="#EB7024" stroke-miterlimit="10" stroke-linecap="round" stroke-linejoin="round"/>
<path d="M41.248 53.5742V55.3941" stroke="#EB7024" stroke-miterlimit="10" stroke-linecap="round" stroke-linejoin="round"/>
<path d="M41.248 48.3711V50.191" stroke="#EB7024" stroke-miterlimit="10" stroke-linecap="round" stroke-linejoin="round"/>
<path d="M45.3613 53.5742V55.3941" stroke="#EB7024" stroke-miterlimit="10" stroke-linecap="round" stroke-linejoin="round"/>
<path d="M45.3613 48.3711V50.191" stroke="#EB7024" stroke-miterlimit="10" stroke-linecap="round" stroke-linejoin="round"/>
<path d="M33.0234 42.5205V44.3404" stroke="#EB7024" stroke-miterlimit="10" stroke-linecap="round" stroke-linejoin="round"/>
<path d="M37.1367 42.5215V44.3414" stroke="#EB7024" stroke-miterlimit="10" stroke-linecap="round" stroke-linejoin="round"/>
<path d="M41.248 42.5205V44.3404" stroke="#EB7024" stroke-miterlimit="10" stroke-linecap="round" stroke-linejoin="round"/>
<path d="M45.3613 42.5215V44.3414" stroke="#EB7024" stroke-miterlimit="10" stroke-linecap="round" stroke-linejoin="round"/>
</svg>
