<svg width="122" height="79" viewBox="0 0 122 79" fill="none" xmlns="http://www.w3.org/2000/svg">
<path d="M12.7463 46.1148C12.7463 48.1559 11.2288 51.4822 6.67661 51.4822C3.03482 51.4822 0.682799 49.8947 0.151704 45.9636H1.06216C1.66913 49.5923 4.70398 50.3482 6.44901 50.3482C9.5597 50.3482 10.3184 48.1559 10.3184 47.2487C10.3184 45.2076 8.64922 44.0736 5.46265 42.4861C3.41414 41.4277 0 39.7645 0 36.4382C0 32.2047 4.17289 31.3732 5.6903 31.3732C9.40796 31.3732 10.9254 33.3387 11.4564 36.1358H10.4701C10.0908 34.6995 9.02861 32.5071 5.6903 32.5071C4.02114 32.5071 2.27612 33.8679 2.27612 35.5311C2.27612 37.4966 4.6281 38.7062 7.05596 39.9913C11.6082 42.1837 12.7463 43.8468 12.7463 46.1148Z" fill="white"/>
<path d="M30.8034 31.6757V44.8297C30.8034 46.0393 30.5758 51.4823 23.2164 51.4823C23.2164 51.4823 15.6293 51.8603 15.6293 44.8297V34.3972C15.6293 33.2632 14.8706 32.2804 13.2773 31.8268V31.6757H18.5883V44.8297C18.5883 50.6507 23.5199 50.3483 23.5199 50.3483C25.0373 50.3483 29.6654 49.7436 29.6654 44.8297V31.6757H30.8034Z" fill="white"/>
<path d="M38.2387 31.6755H32.9277V31.8267C34.4451 31.9779 35.2798 33.1875 35.2798 34.3971V51.0286H38.2387V42.3348C41.2735 42.3348 47.4949 42.7128 47.4949 37.1186C47.4949 31.5999 41.2735 31.6755 38.2387 31.6755ZM40.2872 41.3521H38.2387V32.6583H40.2872C40.8183 32.6583 44.1566 32.9607 44.3083 37.1942C44.4601 41.2765 41.3494 41.3521 40.2872 41.3521Z" fill="white"/>
<path d="M59.0265 42.108C61.1509 41.5789 63.0476 40.2181 63.0476 37.1186C63.0476 31.5999 56.9021 31.6755 53.7914 31.6755H48.4805V31.8267C49.9979 31.9779 50.8325 33.1875 50.8325 34.3971V51.0286H53.7914V42.3348C54.3984 42.3348 55.1571 42.3348 55.9917 42.3348L62.2131 51.1042H65.4755L59.0265 42.108ZM58.3437 40.7473C57.8884 41.0497 57.4332 41.2009 56.9021 41.2765C56.5228 41.3521 56.2193 41.3521 55.8399 41.3521H53.7156V32.6583H55.8399C56.4469 32.6583 59.7093 32.9607 59.8611 37.1942C59.8611 37.6478 59.8611 38.1014 59.7852 38.555C59.7093 38.9329 59.6335 39.2353 59.4059 39.5377C59.33 39.8401 59.1024 40.0669 58.9506 40.2937C58.7989 40.4449 58.5713 40.5961 58.3437 40.7473Z" fill="white"/>
<path d="M80.6492 50.0459V51.0287H68.434V34.3215C68.434 33.1875 67.6753 32.2048 66.082 31.7512V31.6H80.7251V32.5827H71.393V40.2937H79.2076V41.5033H71.393V49.9703H80.6492V50.0459Z" fill="white"/>
<path d="M122 50.0459V51.0287H109.709V34.3215C109.709 33.1875 108.951 32.2048 107.357 31.7512V31.6H122V32.5827H112.668V40.2937H120.483V41.5033H112.668V49.9703H122V50.0459Z" fill="white"/>
<path d="M105.765 51.0287H105.689H102.882L100.605 37.7234L93.3977 51.0287L86.797 38.6306L85.3555 51.0287H84.1415L85.5072 39.0086C85.6589 37.3454 86.3418 32.8851 83.3828 32.2048V32.0536C87.1763 32.1292 88.4661 35.6067 89.4525 37.421L94.3082 46.644L102.502 31.6L105.765 51.0287Z" fill="white"/>
<path d="M61.2276 7.78658C75.1878 7.78658 87.3271 13.91 93.9279 22.9818C90.893 9.90333 77.388 0 61.2276 0C45.0671 0 31.5622 9.90333 28.5273 22.9818C35.1281 13.91 47.2674 7.78658 61.2276 7.78658Z" fill="#E66A25"/>
<path d="M82.7748 58.0593H69.3457V60.6296H82.7748V58.0593Z" fill="white"/>
<path d="M16.9943 59.3444H10.1659V78.5463H7.13109V59.3444H0.302734V58.0593H16.9943V59.3444Z" fill="white"/>
<path d="M28.2985 57.6056C22.8358 57.6056 18.3594 61.0831 18.3594 68.2649C18.3594 75.6735 22.7599 78.9243 28.2985 78.9243C33.7611 78.9243 38.2375 75.6735 38.2375 68.2649C38.2375 61.0075 33.7611 57.6056 28.2985 57.6056ZM28.2985 77.9415C24.7325 77.9415 21.7736 74.9932 21.7736 68.2649C21.7736 61.7635 24.7325 58.5884 28.2985 58.5884C31.9402 58.5884 34.8233 61.6879 34.8233 68.2649C34.8992 75.0688 31.9402 77.9415 28.2985 77.9415Z" fill="white"/>
<path d="M65.4768 58.0593L57.5862 78.9999L52.5788 64.7875L47.723 78.9999L40.6671 59.798C40.5912 59.4956 40.3636 59.1932 40.0601 58.9665C39.8325 58.7397 39.4531 58.5129 39.1497 58.4373L38.4668 58.286V58.1349H41.1982C42.2604 58.1349 43.2467 58.8152 43.626 59.798L48.4059 72.8765L53.4892 58.0593L58.5725 72.6497L64.0352 58.0593H65.4768Z" fill="white"/>
<path d="M97.5693 69.0966C99.8454 68.4918 101.818 67.1311 101.818 63.8048C101.818 57.9837 95.2932 58.0593 92.1066 58.0593H86.4922V58.2105C88.0855 58.4373 88.9959 59.6469 88.9959 60.932V78.5464H92.1066V69.3234C92.7894 69.3234 93.5481 69.3234 94.3827 69.3234L100.908 78.5464H104.398L97.5693 69.0966ZM96.9623 67.6603C96.5071 67.9627 95.976 68.1138 95.4449 68.1894C95.0656 68.265 94.6862 68.265 94.3827 68.265H92.1825V59.0421H94.3827C94.9897 59.0421 98.4798 59.3445 98.6315 63.8048C98.6315 64.2584 98.6315 64.7875 98.5556 65.2411C98.4797 65.6191 98.328 65.9971 98.1762 66.2995C98.1004 66.6019 97.8727 66.8287 97.6451 67.0555C97.3417 67.2823 97.1899 67.5091 96.9623 67.6603Z" fill="white"/>
<path d="M120.559 73.3301C120.559 75.4469 118.966 79 114.11 79C110.241 79 107.813 77.3368 107.206 73.1789H108.117C108.724 77.0344 111.91 77.866 113.807 77.866C117.069 77.866 117.904 75.5981 117.904 74.5397C117.904 72.3474 116.159 71.2134 112.745 69.4746C110.62 68.4163 106.979 66.6019 106.979 63.1244C106.979 58.6641 111.379 57.757 112.972 57.757C116.918 57.757 118.511 59.7981 119.118 62.7464H118.056C117.6 61.2345 116.538 58.8909 112.972 58.8909C111.227 58.8909 109.406 60.3273 109.406 62.066C109.406 64.1072 111.91 65.4679 114.49 66.7531C119.345 69.1722 120.559 70.911 120.559 73.3301Z" fill="white"/>
<path d="M82.7748 67.0554H69.3457V69.6257H82.7748V67.0554Z" fill="white"/>
<path d="M82.7748 75.7491H69.3457V78.3195H82.7748V75.7491Z" fill="white"/>
</svg>
