<svg width="40" height="40" viewBox="0 0 40 40" fill="none" xmlns="http://www.w3.org/2000/svg">
<g clip-path="url(#clip0_175_1867)">
<mask id="mask0_175_1867" style="mask-type:luminance" maskUnits="userSpaceOnUse" x="0" y="0" width="40" height="40">
<path d="M0 3.8147e-06H40V40H0V3.8147e-06Z" fill="white"/>
</mask>
<g mask="url(#mask0_175_1867)">
<path d="M38.805 21.8427H1.195C0.858673 21.8427 0.585938 22.1153 0.585938 22.4517V23.8284C0.585938 24.1648 0.858673 24.4375 1.195 24.4375H38.805C39.1414 24.4375 39.4141 24.1648 39.4141 23.8284V22.4517C39.4141 22.1153 39.1414 21.8427 38.805 21.8427Z" stroke="white" stroke-miterlimit="10" stroke-linecap="round" stroke-linejoin="round"/>
<path d="M6.76883 27.2563H5.28531C4.92281 27.2563 4.62891 27.5502 4.62891 27.9127V33.3439C4.62891 33.7064 4.92281 34.0002 5.28531 34.0002H6.76883C7.13133 34.0002 7.42516 33.7064 7.42516 33.3439V27.9127C7.42516 27.5502 7.13133 27.2563 6.76883 27.2563Z" stroke="white" stroke-miterlimit="10" stroke-linecap="round" stroke-linejoin="round"/>
<path d="M12.3743 27.2563H10.8908C10.5283 27.2563 10.2344 27.5502 10.2344 27.9127V33.3439C10.2344 33.7064 10.5283 34.0002 10.8908 34.0002H12.3743C12.7368 34.0002 13.0306 33.7064 13.0306 33.3439V27.9127C13.0306 27.5502 12.7368 27.2563 12.3743 27.2563Z" stroke="white" stroke-miterlimit="10" stroke-linecap="round" stroke-linejoin="round"/>
<path d="M17.9524 27.2563H16.4688C16.1064 27.2563 15.8125 27.5502 15.8125 27.9127V33.3439C15.8125 33.7064 16.1064 34.0002 16.4688 34.0002H17.9524C18.3149 34.0002 18.6087 33.7064 18.6087 33.3439V27.9127C18.6087 27.5502 18.3149 27.2563 17.9524 27.2563Z" stroke="white" stroke-miterlimit="10" stroke-linecap="round" stroke-linejoin="round"/>
<path d="M23.5579 27.2563H22.0744C21.7118 27.2563 21.418 27.5502 21.418 27.9127V33.3439C21.418 33.7064 21.7118 34.0002 22.0744 34.0002H23.5579C23.9204 34.0002 24.2142 33.7064 24.2142 33.3439V27.9127C24.2142 27.5502 23.9204 27.2563 23.5579 27.2563Z" stroke="white" stroke-miterlimit="10" stroke-linecap="round" stroke-linejoin="round"/>
<path d="M29.1497 27.2563H27.6661C27.3036 27.2563 27.0098 27.5502 27.0098 27.9127V33.3439C27.0098 33.7064 27.3036 34.0002 27.6661 34.0002H29.1497C29.5122 34.0002 29.806 33.7064 29.806 33.3439V27.9127C29.806 27.5502 29.5122 27.2563 29.1497 27.2563Z" stroke="white" stroke-miterlimit="10" stroke-linecap="round" stroke-linejoin="round"/>
<path d="M34.7278 27.2563H33.2442C32.8817 27.2563 32.5879 27.5502 32.5879 27.9127V33.3439C32.5879 33.7064 32.8817 34.0002 33.2442 34.0002H34.7278C35.0903 34.0002 35.3841 33.7064 35.3841 33.3439V27.9127C35.3841 27.5502 35.0903 27.2563 34.7278 27.2563Z" stroke="white" stroke-miterlimit="10" stroke-linecap="round" stroke-linejoin="round"/>
<path d="M32.6722 0.58583H7.32781C6.99141 0.58583 6.71875 0.860205 6.71875 1.19864V2.5838C6.71875 2.92224 6.99141 3.19653 7.32781 3.19653H32.6722C33.0086 3.19653 33.2812 2.92224 33.2812 2.5838V1.19864C33.2812 0.860205 33.0086 0.58583 32.6722 0.58583Z" stroke="white" stroke-miterlimit="10" stroke-linecap="round" stroke-linejoin="round"/>
<path d="M29.4922 21.8428V6.12324C29.4922 5.80137 29.2313 5.54051 28.9095 5.54051H21.7546C21.4328 5.54051 21.1719 5.80137 21.1719 6.12324V21.8428H29.4922Z" stroke="white" stroke-miterlimit="10" stroke-linecap="round" stroke-linejoin="round"/>
<path d="M18.8281 21.8428V6.12324C18.8281 5.80137 18.5673 5.54051 18.2454 5.54051H11.0905C10.7687 5.54051 10.5078 5.80137 10.5078 6.12324V21.8428H18.8281Z" stroke="white" stroke-miterlimit="10" stroke-linecap="round" stroke-linejoin="round"/>
<path d="M38.1803 36.7761H1.82031V24.4375H38.1803V36.7761Z" stroke="white" stroke-miterlimit="10" stroke-linecap="round" stroke-linejoin="round"/>
<path d="M24.3047 8.79472L26.1416 10.6316" stroke="white" stroke-miterlimit="10" stroke-linecap="round" stroke-linejoin="round"/>
<path d="M26.3516 7.66677L27.27 8.58521" stroke="white" stroke-miterlimit="10" stroke-linecap="round" stroke-linejoin="round"/>
<path d="M21.3672 39.4141H38.8049C39.1413 39.4141 39.414 39.1413 39.414 38.805V37.4283C39.414 37.0919 39.1413 36.8192 38.8049 36.8192H1.19492C0.858595 36.8192 0.585938 37.0919 0.585938 37.4283V38.805C0.585938 39.1413 0.858595 39.4141 1.19492 39.4141H18.6328" stroke="white" stroke-miterlimit="10" stroke-linecap="round" stroke-linejoin="round"/>
<path d="M31.8359 11.6418V3.19676H8.16406V21.8428H31.8359V14.3761" stroke="white" stroke-miterlimit="10" stroke-linecap="round" stroke-linejoin="round"/>
</g>
</g>
<defs>
<clipPath id="clip0_175_1867">
<rect width="40" height="40" fill="white"/>
</clipPath>
</defs>
</svg>
