<svg width="40" height="40" viewBox="0 0 40 40" fill="none" xmlns="http://www.w3.org/2000/svg">
<g clip-path="url(#clip0_175_1953)">
<path d="M7.09992 38.6706H2.00125C1.21961 38.6706 0.585938 38.0369 0.585938 37.2553V20.1982H39.4141V37.2553C39.4141 38.0369 38.7804 38.6706 37.9988 38.6706H9.83992" stroke="white" stroke-miterlimit="10" stroke-linecap="round" stroke-linejoin="round"/>
<path d="M30.6205 16.5135L33.762 15.2416C34.1155 15.0985 34.5107 15.0985 34.8641 15.2417L38.6017 16.7557C39.0927 16.9546 39.4141 17.4315 39.4141 17.9613V20.1981H0.585938V16.5074C0.585938 15.928 0.969297 15.4184 1.52602 15.2577L5.23617 14.1872C5.71117 14.0502 6.22219 14.1244 6.63852 14.3909L9.69148 16.3448L12.085 15.7881C12.5883 15.6711 13.1176 15.7868 13.5261 16.1032L18.8134 20.1981L23.3524 17.3541C23.6309 17.1796 23.9598 17.1036 24.2865 17.1382L28.0835 17.5406" stroke="white" stroke-miterlimit="10" stroke-linecap="round" stroke-linejoin="round"/>
<path d="M18.8137 20.1982C18.8137 20.1982 20.1486 20.9429 20.0002 22.8711C19.8519 24.7993 12.5842 25.7634 9.32103 26.1343C6.0579 26.505 3.93212 28.2633 4.7972 30.8064C5.6236 33.236 10.9526 33.9212 11.3234 35.7011C11.6942 37.4809 9.84017 38.6706 9.84017 38.6706H30.457C30.457 38.6706 31.347 36.3685 28.603 33.6987C25.859 31.0289 17.2563 31.993 15.9214 30.1389C14.5865 28.2849 22.5867 25.7269 22.6701 22.9453C22.7231 21.1757 21.8543 20.1982 21.8543 20.1982H18.8137Z" stroke="white" stroke-miterlimit="10" stroke-linecap="round" stroke-linejoin="round"/>
<path d="M39.4148 26.542H29.5098L32.6953 25.1062C32.6953 25.1062 33.3234 23.1769 35.2079 23.9397C35.2079 23.9397 35.2977 22.3693 36.4641 22.459C36.4641 22.459 36.2633 20.181 39.4147 20.1983V26.542H39.4148Z" stroke="white" stroke-miterlimit="10" stroke-linecap="round" stroke-linejoin="round"/>
<path d="M19.3783 10.8706C21.092 10.8706 22.4812 9.48136 22.4812 7.76769C22.4812 6.05401 21.092 4.66479 19.3783 4.66479C17.6646 4.66479 16.2754 6.05401 16.2754 7.76769C16.2754 9.48136 17.6646 10.8706 19.3783 10.8706Z" stroke="white" stroke-miterlimit="10" stroke-linecap="round" stroke-linejoin="round"/>
<path d="M20.2916 2.1631L21.103 1.32935L21.3889 2.45716C21.5652 3.15286 22.2808 3.56599 22.9715 3.37083L24.0912 3.0545L23.7748 4.17419C23.5797 4.86481 23.9928 5.58036 24.6885 5.75677L25.8163 6.04263L24.9826 6.85411C24.4683 7.35466 24.4683 8.18091 24.9826 8.68146L25.8163 9.49294L24.6885 9.7788C23.9928 9.95513 23.5797 10.6707 23.7748 11.3614L24.0912 12.4811L22.9715 12.1647C22.2809 11.9696 21.5653 12.3827 21.3889 13.0784L21.103 14.2062L20.2916 13.3725C19.791 12.8582 18.9648 12.8582 18.4642 13.3725L17.6527 14.2062L17.3669 13.0784C17.1905 12.3827 16.475 11.9696 15.7843 12.1647L14.6646 12.4811L14.9809 11.3614C15.1761 10.6708 14.763 9.95521 14.0673 9.7788L12.9395 9.49294L13.7732 8.68146C14.2875 8.18091 14.2875 7.35466 13.7732 6.85411L12.9395 6.04263L14.0673 5.75677C14.763 5.58044 15.1761 4.86489 14.9809 4.17419L14.6646 3.0545L15.7843 3.37083C16.4749 3.56599 17.1905 3.15286 17.3669 2.45716L17.6527 1.32935L18.4642 2.1631C18.9648 2.67747 19.791 2.67747 20.2916 2.1631Z" stroke="white" stroke-miterlimit="10" stroke-linecap="round" stroke-linejoin="round"/>
<path d="M10.5318 28.4331C10.5318 28.4331 9.19845 29.4887 10.1429 30.9887" stroke="white" stroke-miterlimit="10" stroke-linecap="round" stroke-linejoin="round"/>
<path d="M15.9206 38.6707C15.9206 38.6707 16.9206 37.1 16.5873 35.7666C16.2539 34.4333 14.9961 33.6641 14.9961 33.6641" stroke="white" stroke-miterlimit="10" stroke-linecap="round" stroke-linejoin="round"/>
<path d="M19.127 33.6641C19.127 33.6641 21.8205 34.6236 22.6941 36.1673" stroke="white" stroke-miterlimit="10" stroke-linecap="round" stroke-linejoin="round"/>
</g>
<defs>
<clipPath id="clip0_175_1953">
<rect width="40" height="40" fill="white"/>
</clipPath>
</defs>
</svg>
